<?xml version="1.0" encoding="UTF-8" standalone="no"?>
<svg
   xmlns:dc="http://purl.org/dc/elements/1.1/"
   xmlns:cc="http://creativecommons.org/ns#"
   xmlns:rdf="http://www.w3.org/1999/02/22-rdf-syntax-ns#"
   xmlns:svg="http://www.w3.org/2000/svg"
   xmlns="http://www.w3.org/2000/svg"
   viewBox="0 0 812.59869 1058.2679"
   height="1058.2679"
   width="812.59869"
   xml:space="preserve"
   id="svg2"
   version="1.1"><metadata
     id="metadata8"><rdf:RDF><cc:Work
         rdf:about=""><dc:format>image/svg+xml</dc:format><dc:type
           rdf:resource="http://purl.org/dc/dcmitype/StillImage" /></cc:Work></rdf:RDF></metadata><defs
     id="defs6"><clipPath
       id="clipPath18"
       clipPathUnits="userSpaceOnUse"><path
         id="path16"
         d="M 0,793.701 H 609.449 V 0 H 0 Z" /></clipPath></defs><g
     transform="matrix(1.3333333,0,0,-1.3333333,0,1058.268)"
     id="g10"><g
       id="g12"><g
         clip-path="url(#clipPath18)"
         id="g14"><g
           transform="translate(326.2061,519.4541)"
           id="g20"><path
             id="path22"
             style="fill:#621c3f;fill-opacity:1;fill-rule:nonzero;stroke:none"
             d="m 0,0 -22.756,-53.626 c -12.031,1.251 -24.135,0.729 -24.135,0.729 l -16.611,39.838 z m -7.336,-68.54 c 0.108,-0.093 0.156,-0.206 0.317,-0.285 L 32.043,25.754 8.731,20.635 1.346,3.267 l -65.875,-13.853 -5.723,13.693 -2.947,-0.619 24.674,-57.7 c 15.531,-1.299 28.951,-4.895 41.189,-13.328" /></g><g
           transform="translate(373.3838,197.9922)"
           id="g24"><path
             id="path26"
             style="fill:#621c3f;fill-opacity:1;fill-rule:nonzero;stroke:none"
             d="m 0,0 c 2.551,4.089 4.879,8.303 7.225,12.631 l -41.248,96.383 -5.532,13.028 c -2.377,-3.473 -4.914,-6.754 -7.623,-9.86 l 4.641,-11.093 z" /></g><g
           transform="translate(101.9014,512.166)"
           id="g28"><path
             id="path30"
             style="fill:#621c3f;fill-opacity:1;fill-rule:nonzero;stroke:none"
             d="m 0,0 v 37.588 l -1.631,0.918 -9.252,-24.371 3.578,-6.181 z" /></g><g
           transform="translate(524.4542,323.0586)"
           id="g32"><path
             id="path34"
             style="fill:#621c3f;fill-opacity:1;fill-rule:nonzero;stroke:none"
             d="m 0,0 13.945,-8.797 -28.84,4.264 -15.324,11.822 15.879,-2.156 z m 15.217,-30.283 -32.284,4.262 2.172,19.064 33.09,-5.452 z m -21.965,-1.635 -11.713,2.221 2.773,1.568 17.877,-3.232 z m -5.356,-31.25 14.45,-15.436 -28.985,1.459 h -0.57 l -2.565,2.537 -10.888,10.919 -19.459,12.298 37.57,-3.901 z m 12.026,-35.782 -32.281,0.696 h -0.124 l 5.118,18.114 0.156,0.585 31.111,-2.377 z m -25.371,-28.115 8.097,-20.569 -32.408,-0.268 -2.849,4.481 -8.704,13.709 -11.439,13.264 v -42.947 l 0.08,-0.422 h -0.08 v 0.422 l -4.613,3.681 v -4.219 l -30.221,-0.761 c 4.658,7.227 9.062,14.836 13.232,22.725 l 16.323,-17.16 0.666,-0.585 v 44.625 l 4.613,-5.359 0.156,5.945 33.883,-1.443 z m -0.317,-37.719 -32.691,-0.933 7.512,15.137 33.798,0.474 z m -29.349,-16.098 5.006,-23.405 -22.643,-1.19 v 17.844 5.798 19.399 l 3.771,0.128 2.393,0.097 4.596,-7.544 z m -6.198,-36.861 c -2.82,2.534 -6.638,4.818 -11.439,6.705 v 3.232 l 20.459,0.697 z m -35.939,-2.252 c -0.793,0.256 -1.824,0.416 -3.219,0.524 -1.553,0.161 -3.375,0.287 -5.482,0.287 -15.326,0 -28.194,-2.885 -31.487,-6.718 -1.793,1.095 -2.742,2.233 -2.742,3.456 0,4.844 15.131,8.81 33.752,8.81 3.694,0 7.227,-0.16 10.569,-0.447 1.222,-0.064 2.38,-0.205 3.412,-0.313 6.273,-0.793 11.519,-2.048 15.084,-3.552 v -8.951 c -5.91,-2.649 -16.719,-4.301 -29.065,-4.301 h -1.506 c -1.187,0 -2.423,0 -3.582,0.064 -6.509,0.239 -12.422,0.986 -17.144,2.061 -1.949,0.698 -3.108,1.445 -3.108,2.221 0,2.628 12.868,4.849 29.19,5.054 h 2.346 c 0.509,0 0.953,0 1.394,0.051 4.041,0.122 4.44,1.088 1.588,1.754 m 19.887,12.016 v -1.447 c -1.455,0.46 -2.899,0.909 -4.563,1.242 z m -8.414,1.804 -1.192,-0.064 -0.713,2.381 -5.006,15.848 -13.377,24.468 28.702,0.947 v -26.637 -5.47 -11.012 z m 26.812,-20.885 c 0,-10.806 -21.457,-19.508 -47.826,-19.508 -5.992,0 -11.631,0.378 -16.91,1.255 -1.03,0.139 -2.11,0.313 -3.059,0.517 -16.447,3.091 -27.795,9.893 -27.795,17.736 0,10.808 21.315,19.574 47.764,19.574 5.324,0 10.619,-0.417 15.418,-1.082 1.142,-0.109 2.267,-0.332 3.33,-0.537 3.85,-0.601 7.432,-1.523 10.68,-2.554 v -3.658 c -3.645,1.253 -8.178,2.264 -13.344,2.962 -1.063,0.172 -2.219,0.288 -3.375,0.382 -3.883,0.429 -8.018,0.615 -12.346,0.615 -20.885,0 -37.763,-4.863 -37.763,-10.934 0,-5.305 13.218,-9.694 30.728,-10.647 1.236,-0.078 2.344,-0.078 3.582,-0.225 1.154,0 2.266,-0.012 3.453,-0.012 11.631,0 22.125,1.523 29.065,3.929 1.791,0.62 3.343,1.35 4.613,2.104 v 3.7 0.901 0.152 2.585 c 0.758,-0.408 1.744,-1.171 2.344,-2.487 0,0 0.349,-0.807 1.111,-0.519 0.682,0.205 -0.271,3.103 -3.455,5.355 v 0.077 4.012 c 8.414,-3.519 13.785,-8.324 13.785,-13.693 m -75.338,-19.176 c 1.426,-0.332 2.901,-0.741 4.405,-1.125 0.998,-0.224 1.984,-0.378 2.98,-0.557 2.98,-0.57 6.227,-1.03 9.525,-1.344 l -14.533,-1.031 z m 18.67,-13.455 -27.289,-2.265 11.393,8.605 28.287,2.374 z m -37.258,-14.564 -26.892,-2.917 -5.549,-0.55 -2.393,-0.301 v 21.422 l -2.849,17.193 26.24,1.382 4.088,-10.462 9.494,-15.798 z m -22.599,-7.384 -15.846,-2.059 4.563,3.551 21.14,1.631 z m 10.174,46.23 -25.465,-1.383 c 7.353,3.188 14.502,7.083 21.519,11.646 z m -77.016,41.789 c -100.949,-0.366 -153.643,113.288 -147.684,245.98 l 13.266,1.567 c -2.898,-10.87 0.586,-19.237 0.553,-19.919 l 75.654,6.418 c -2.471,-0.858 -5.768,-2.328 -9.094,-4.626 l -66.717,-6.244 c -0.238,-4.12 -0.285,-8.289 -0.285,-12.502 0,-29.258 4.563,-56.956 12.471,-82.093 -1.348,-2.915 -2.141,-6.768 -1.109,-11.646 1.189,-5.358 5.086,-9.953 10.632,-13.612 4.899,-11.143 10.459,-21.505 16.483,-31.109 l 8.588,18.271 c 1.822,-1.219 1.383,-0.887 2.615,-1.599 l -8.412,-20.761 c 0,0 -2.156,-8.209 5.908,-16.435 3.375,-3.531 6.164,-3.643 8.065,-2.898 l 13.029,31.362 c 0.793,-0.256 1.662,-0.476 2.584,-0.697 l -13.188,-32.568 c 23.233,-25.782 51.157,-41.125 78.983,-41.266 17.672,-0.077 34.961,6.577 50.918,18.083 7.148,5.13 13.947,11.268 20.492,18.175 -21.252,-26.226 -46.623,-41.806 -73.752,-41.881 m -6.104,-90.303 4.436,15.229 0.285,20.871 c 0.51,0 0.906,-0.031 1.383,-0.031 7.59,0 15.053,0.749 22.598,2.092 l 2.55,-18.715 6.75,-14.972 z m -22.675,17.021 -30.268,-3.737 6.035,15.337 2.297,16.944 c 7.389,-2.855 14.9,-5.024 22.52,-6.642 z m -49.573,32.247 -33.595,-3.275 10.365,13.071 5.83,13.156 c 6.244,-5.214 12.709,-9.86 19.432,-13.93 z m -40.871,43.191 -24.26,-0.954 c 0.76,1.286 1.155,2.648 1.155,3.992 0,1.6 -0.6,3.219 -1.504,4.646 l 1.742,2.093 8.225,12.361 c 4.961,-7.134 10.002,-13.821 15.355,-20.066 z m -38.761,10.582 c 2.156,-1.075 3.423,-2.2 3.423,-3.455 0,-1.254 -1.267,-2.374 -3.423,-3.455 z m -14.01,-3.058 c -21.28,3.436 -31.822,-0.378 -34.549,-1.568 -0.236,0.409 -0.44,0.761 -0.44,1.171 0,3.833 11.792,6.975 26.243,6.975 4.929,0 9.492,-0.333 13.439,-1.082 1.82,-0.217 3.326,-0.55 4.832,-0.902 v -6.334 -3.616 c -4.756,-1.299 -11.189,-1.996 -18.271,-1.996 -8.526,0 -16.147,1.074 -20.92,2.738 4.963,3.853 24.66,2.585 28.588,2.81 4.089,0.217 1.078,1.804 1.078,1.804 m 25.816,-8.555 c -0.68,-1.017 -1.664,-1.939 -2.789,-2.777 -6.275,-4.863 -18.494,-8.049 -32.566,-8.049 -20.444,0 -36.971,6.827 -36.971,15.247 0,8.35 16.527,15.228 36.971,15.228 5.134,0 9.969,-0.428 14.502,-1.189 1.55,-0.32 3.056,-0.653 4.562,-1.018 v -2.469 c -1.744,0.472 -3.613,0.805 -5.672,1.126 -3.902,0.587 -8.226,0.87 -12.787,0.87 -16.086,0 -29.066,-3.948 -29.066,-8.874 0,-4.896 12.98,-8.888 29.066,-8.888 8.575,0 16.194,1.126 21.485,2.962 4.677,1.522 7.466,3.628 7.466,5.926 0,2.048 -2.218,3.915 -6.007,5.406 v 2.662 c 6.562,-2.221 11.171,-5.355 12.757,-8.952 0.399,-0.908 0.635,-1.874 0.635,-2.79 0,-1.542 -0.557,-3.001 -1.586,-4.421 m -66.605,241.162 136.777,69.728 63.42,9.416 47.939,-10.904 4.36,-1.029 1.125,-0.256 5.594,-1.252 -0.049,-0.016 L -81.01,87.27 Z m 159.931,99.282 c 0,0 1.317,0.89 3.897,1.555 v -1.871 c 0,-0.602 0.428,-1.063 0.982,-1.063 0.606,0 1.078,0.461 1.078,1.063 v 2.204 c 0.903,0.188 1.901,0.253 3.059,0.253 5.801,0 9.336,-2.141 9.336,-2.141 v -20.346 l -12.395,-1.853 v 3.311 c 0,0.586 -0.472,1.063 -1.078,1.063 -0.554,0 -0.982,-0.477 -0.982,-1.063 v -3.676 l -3.897,-0.508 z m -5.359,7.054 c 0,4.122 3.965,7.529 8.844,7.529 h 10.967 c 4.962,0 8.89,-3.407 8.89,-7.529 0,-1.57 -0.586,-3.089 -1.615,-4.313 v 0.065 c 0,0 -6.514,2.598 -12.711,2.598 -6.244,0 -12.471,-2.598 -12.471,-2.598 v -0.44 c -1.189,1.314 -1.904,2.914 -1.904,4.688 m 22.789,13.994 c 0,-1.286 -0.473,-2.537 -1.268,-3.471 h -0.552 -13.231 -0.638 c -0.709,0.934 -1.139,2.185 -1.139,3.471 0,3.075 2.25,5.465 5.119,5.465 H -283 c 2.898,0 5.244,-2.39 5.244,-5.465 m 6.309,-7.134 c -1.143,1.334 -2.614,2.364 -4.325,2.982 0.553,1.266 0.838,2.677 0.838,4.152 0,0.603 -0.049,1.124 -0.129,1.663 z m 13.121,-31.567 -3.66,-0.473 -8.098,20.363 c 0.793,1.472 1.219,3.043 1.219,4.817 0,0.269 0,0.49 -0.034,0.714 z m 79.33,-5.198 34.834,82.425 5.611,1.186 c 14.166,-31.662 23.943,-69.902 28.031,-111.437 l -59.06,13.927 c -2.822,4.899 -5.912,9.541 -9.416,13.899 m 110.57,117.222 25.416,-12.218 -6.193,-8.859 -7.307,-2.962 -20.332,-14.514 c -2.664,7.208 -5.482,14.23 -8.541,20.996 z m 37.971,-41.535 35.779,-15.497 -17.32,-19.016 -13.137,-9.764 -38,15.673 19.254,13.928 z m 30.455,6.26 6.433,-18.73 -36.099,14.846 -5.242,19.305 z m -20.205,-83.467 0.664,0.457 3.031,-0.966 L 13.945,112.896 0,103.957 l -14.373,-5.829 -2.137,-0.856 -1.521,0.428 -33.629,10.172 16.195,5.58 z m 35.627,11.965 1.379,-19.826 -33.629,10.807 -0.158,0.065 -1.475,12.566 -1.08,10.081 z M -33.229,79.08 H -51.66 c -0.526,8.746 -1.239,17.32 -2.141,25.847 l 35.895,-10.635 c 0.474,-6.116 0.683,-12.313 0.92,-18.591 z m -32.693,90.359 41.264,-15.766 0.318,0.221 c 0.111,-0.619 0.238,-1.219 0.318,-1.808 l -13.392,-0.918 -22.342,-7.893 c -1.842,8.94 -3.869,17.622 -6.166,26.164 M -240.1,-165.602 c -40.238,5.356 -51.791,28.539 -46.386,42.372 1.298,3.25 2.011,5.231 2.613,6.466 30.381,0.697 56.322,18.843 67.006,44.326 2.66,0.777 8.541,3.073 13.027,8.003 l 27.922,-68.24 c 0,0 4.041,-12.264 -3.789,-19.696 -10.869,-10.301 -37.004,-16.372 -60.393,-13.231 m -49.256,48.854 c 0.873,-0.016 1.635,-0.016 2.553,-0.016 -4.615,-9.713 -8.67,-26.275 10.397,-38.542 14.847,-9.541 32.613,-14.654 48.619,-14.654 25.654,0.046 46.418,10.885 46.418,10.885 0,0 -28.035,-20.399 -64.104,-11.915 -63.898,15.607 -47.211,48.681 -43.883,54.242 m -72.753,45.275 c -0.51,0 -0.952,-0.188 -1.188,-0.473 0,0.966 0.076,1.82 0.205,2.614 0.236,-0.318 0.473,-0.522 0.744,-0.522 0.522,0 0.871,0.713 0.871,1.648 0,0.745 -0.316,1.379 -0.713,1.535 1.475,3.36 4.137,4.709 4.137,4.709 0,0 0.08,-0.395 0.236,-1.127 -0.554,-0.015 -1.078,-0.712 -1.078,-1.586 0,-0.901 0.524,-1.648 1.159,-1.648 0.316,0 0.525,0.192 0.761,0.477 1.535,-4.389 4.959,-11.568 12.346,-16.434 15.324,-10.301 35.973,-12.995 35.973,-12.995 -3.854,-0.79 -7.942,-1.235 -12.188,-1.235 -0.316,0.73 -1.473,1.235 -2.93,1.235 h -0.048 v 0.096 c 0,0.966 -0.713,1.728 -1.635,1.728 -0.789,0 -1.346,-0.57 -1.504,-1.239 h -0.92 c -1.344,0 -2.486,-0.189 -3.404,-0.489 0.156,0.284 0.316,0.65 0.316,1.03 0,0.87 -0.556,1.584 -1.189,1.584 -0.477,0 -0.762,-0.286 -0.951,-0.743 -0.477,0.189 -0.997,0.314 -1.6,0.314 -0.824,0 -1.506,-0.173 -2.139,-0.554 -0.429,0.477 -1.238,0.81 -2.109,0.858 0.16,0.425 0.316,0.886 0.316,1.455 0,1.363 -0.584,2.49 -1.218,2.49 -0.633,0 -1.286,-1.127 -1.286,-2.49 0,-0.109 0.08,-0.203 0.08,-0.268 -0.505,0.268 -1.187,0.46 -1.933,0.46 -0.553,0 -1.029,-0.08 -1.395,-0.224 0.08,0.352 0.205,0.81 0.205,1.287 0,1.568 -0.918,2.867 -2.105,2.867 -0.682,0 -1.238,-0.382 -1.635,-1.032 -0.316,0.429 -0.791,0.65 -1.267,0.65 -0.366,0 -0.553,-0.093 -0.87,-0.316 -0.289,0.256 -0.605,0.459 -1.046,0.459 -0.428,0 -0.793,-0.203 -1.143,-0.475 -0.047,0.904 -0.68,1.618 -1.393,1.68 0,0.364 0.079,0.605 0.079,0.857 0,1.234 -0.397,2.141 -0.874,2.821 0.59,0.301 0.999,0.966 0.999,1.916 0,1.142 -0.633,2.076 -1.315,2.076 -0.758,0 -1.424,-0.934 -1.424,-2.076 0,-0.365 0.11,-0.794 0.317,-1.125 -0.682,0 -1.285,-0.426 -1.635,-1.188 -0.236,0.157 -0.473,0.269 -0.678,0.269 -0.556,0 -0.906,-0.316 -1.189,-0.714 -0.033,0.065 -0.114,0.162 -0.16,0.237 0.396,0.477 0.632,1.286 0.632,2.156 0,0.586 -0.076,1.063 -0.312,1.507 0.836,0.157 1.471,0.934 1.471,1.949 0,1.095 -0.762,2.045 -1.664,2.045 -0.95,0 -1.758,-0.95 -1.758,-2.045 0,-0.268 0.047,-0.54 0.158,-0.761 -0.477,-0.092 -0.793,-0.413 -1.029,-0.713 -0.319,0.713 -0.59,1.491 -0.713,2.284 -0.114,0.489 -0.319,1.074 -0.35,1.536 0.35,-0.221 0.633,-0.301 0.983,-0.301 0.998,0 1.791,0.869 1.791,1.947 0,1.078 -0.793,1.997 -1.791,1.997 m 63.468,96.354 c -1.506,-2.044 -4.248,-6.546 -2.107,-10.269 2.217,-5.499 11.996,-10.887 48.681,-24.772 17.323,-6.591 57.987,-20.503 49.602,-47.288 -1.504,-4.846 -8.414,-9.697 -12.852,-10.95 0.112,0.316 0.194,0.588 0.317,0.873 l -0.412,-0.493 c 0.207,0.793 0.681,2.822 1.205,4.85 0.474,0 1.062,0.079 1.535,0.554 0.891,0.633 1.207,1.571 0.762,2.172 -0.397,0.413 -1.03,0.508 -1.711,0.205 0.318,1.335 0.476,2.364 0.476,2.552 0,0.19 -0.033,0.506 -0.158,0.886 0.76,-0.537 1.522,-0.761 1.951,-0.409 0.315,0.222 0.364,0.698 0.237,1.267 0.047,-0.096 0.078,-0.144 0.127,-0.237 0.472,-0.652 1.584,-0.684 2.375,-0.08 0.839,0.65 1.029,1.68 0.476,2.377 -0.476,0.698 -1.553,0.714 -2.379,0.065 -0.552,-0.445 -0.793,-1.079 -0.759,-1.635 -0.19,0.444 -0.428,0.998 -0.872,1.539 -0.998,1.282 -2.263,1.947 -2.929,1.599 -0.842,1.475 -2.188,3.203 -4.03,5.135 0,0 0.129,0 0.209,0.096 1.075,0.821 1.268,2.662 0.19,3.945 -1.029,1.299 -2.776,1.617 -3.854,0.713 -0.423,-0.237 -0.584,-0.666 -0.713,-1.094 -0.949,0.713 -1.931,1.459 -2.929,2.204 0.476,0.064 1.029,0.285 1.506,0.698 1.423,1.061 1.664,3.01 0.757,4.357 -1.074,1.222 -3.025,1.379 -4.404,0.317 -1.078,-0.779 -1.519,-2.076 -1.234,-3.184 -1.348,0.79 -2.789,1.677 -4.373,2.566 0.156,0.396 0.156,0.871 0.08,1.346 0.441,0.065 0.789,0.238 1.105,0.462 0.526,0.473 0.809,1.106 0.873,1.884 0.571,-0.317 1.157,-0.333 1.6,0 0.635,0.444 0.635,1.491 0.033,2.205 -0.586,0.758 -1.506,0.933 -2.107,0.44 0,-0.031 -0.033,-0.124 -0.114,-0.155 -0.125,0.188 -0.205,0.348 -0.361,0.568 -1.346,1.681 -3.486,2.189 -4.758,1.191 -1.074,-0.858 -1.234,-2.585 -0.472,-4.105 -0.049,0 -0.049,-0.048 -0.161,-0.08 -0.365,-0.3 -0.488,-0.714 -0.601,-1.19 -2.457,1.27 -5.246,2.473 -8.258,3.771 0.16,1.223 -0.473,2.759 -1.756,3.933 -1.744,1.679 -4.201,2.156 -5.359,0.87 -0.393,-0.397 -0.553,-0.983 -0.553,-1.664 -0.842,0.35 -1.662,0.681 -2.504,0.966 0.444,0.634 0.524,1.395 0.239,2.109 0.125,0.08 0.285,0.159 0.365,0.221 1.267,0.904 1.299,2.853 0.238,4.2 -1.111,1.395 -2.951,1.808 -4.09,0.858 -1.238,-0.97 -1.363,-2.822 -0.285,-4.217 -0.428,-0.397 -0.637,-1.062 -0.637,-1.664 -0.633,0.254 -1.185,0.477 -1.74,0.633 0.156,1.299 -0.557,2.963 -2.107,4.169 -0.762,0.538 -1.584,0.966 -2.426,1.127 0.049,0 0.08,0 0.156,0.012 0.637,0.509 0.686,1.443 0.129,2.237 0,0 0,0.032 -0.08,0.032 0.08,0 0.16,0 0.191,0.092 0.918,0.654 0.918,2.172 0.049,3.298 -0.953,1.171 -2.394,1.476 -3.299,0.791 -0.918,-0.698 -0.951,-2.249 -0.125,-3.391 0.286,-0.253 0.602,-0.522 0.838,-0.665 -0.365,-0.506 -0.316,-1.284 0.16,-1.917 0.19,-0.221 0.397,-0.332 0.633,-0.489 -0.601,-0.113 -1.109,-0.32 -1.474,-0.794 -0.317,-0.445 -0.473,-0.998 -0.397,-1.599 -0.682,0.236 -1.266,0.521 -2.029,0.758 0.318,1.427 -0.869,3.251 -2.85,4.565 -1.158,0.697 -2.344,1.126 -3.375,1.171 0.35,0.159 0.791,0.413 0.983,0.793 0.681,1.094 0.205,2.598 -0.983,3.376 -1.269,0.841 -2.869,0.601 -3.502,-0.49 -0.715,-1.094 -0.236,-2.601 0.949,-3.392 0.366,-0.224 0.682,-0.348 1.125,-0.411 -0.523,-0.161 -0.916,-0.413 -1.158,-0.795 -0.156,-0.268 -0.236,-0.633 -0.236,-1.029 -1.473,0.697 -2.9,1.378 -4.295,2.011 -0.029,0.951 -0.506,2.157 -1.424,3.235 -0.842,1.123 -1.904,1.949 -2.902,2.218 1.158,0.922 1.031,2.789 -0.08,4.295 -0.838,1.032 -2.057,1.569 -3.059,1.472 -0.076,0.16 -0.076,0.209 -0.236,0.318 -0.43,0.621 -1.078,0.936 -1.744,0.808 -0.047,0.634 -0.237,1.316 -0.762,1.885 -1.029,1.318 -2.582,1.743 -3.406,1.078 -0.998,-0.745 -0.871,-2.361 0.111,-3.597 0.795,-1.078 2.029,-1.57 2.902,-1.345 0.123,-0.237 0.205,-0.557 0.393,-0.778 0.209,-0.253 0.557,-0.477 0.762,-0.601 0,-0.793 0.316,-1.697 0.951,-2.474 0.637,-0.793 1.346,-1.299 2.187,-1.49 -0.316,-0.395 -0.445,-0.998 -0.316,-1.728 -1.996,1.062 -3.854,2.157 -5.611,3.171 -0.157,0.95 -0.711,1.995 -1.424,3.073 -1.588,1.856 -3.535,2.871 -4.518,2.109 -0.254,-0.22 -0.443,-0.586 -0.443,-1.03 -2.299,1.696 -4.375,3.36 -5.959,4.93 0.441,1.123 0,2.914 -1.268,4.466 -1.269,1.635 -2.98,2.474 -4.215,2.221 -0.476,0.856 -0.792,1.632 -1.142,2.473 0.666,0.268 1.348,0.805 1.695,1.616 0.762,1.615 0.317,3.358 -0.902,3.992 -0.524,0.236 -1.11,0.285 -1.711,0.128 0.078,1.283 0.268,2.565 0.601,3.723 0,-0.933 0.317,-1.727 0.983,-2.028 1.109,-0.568 2.66,0.284 3.455,1.868 0.762,1.587 0.477,3.283 -0.586,3.836 -1.078,0.461 -2.236,-0.08 -3.025,-1.251 0.789,2.044 1.867,3.865 3.263,5.499 0.188,-0.696 0.584,-1.253 1.217,-1.57 1.287,-0.633 2.951,0.161 3.664,1.728 0.742,1.539 0.475,3.203 -0.793,3.899 3.612,2.898 7.653,4.895 10.998,5.91 z m 0,34.991 c -2.74,0.473 -4.404,0.838 -5.718,1.282 l 5.718,0.602 z m 7.352,-1.224 c -1.518,0.241 -2.822,0.447 -3.897,0.654 v 2.866 l 3.897,0.382 z m 14.455,-2.136 c -0.635,0.096 -1.238,0.189 -1.996,0.316 -4.045,0.586 -7.496,1.063 -10.399,1.504 v 4.393 l 12.395,1.283 z m 57.621,-79.728 c -5.879,3.787 -13.473,7.828 -22.885,11.933 -2.297,4.96 -5.752,9.492 -10.236,13.28 3.09,-3.771 5.322,-7.496 6.937,-11.886 -2.408,1.032 -4.877,1.997 -7.539,3.011 -0.271,0.126 -0.556,0.222 -0.793,0.285 -1.873,3.836 -4.722,7.243 -8.338,10.254 2.694,-3.171 4.565,-5.705 5.881,-9.319 -41.455,15.909 -43.644,20.666 -41.853,25.626 0,0.048 0.113,0.063 0.113,0.063 0.949,0.141 1.787,0.253 2.74,0.413 v 3.122 17.273 l 3.897,0.381 v -3.503 c 0,-0.634 0.428,-1.095 0.982,-1.095 0.606,0 1.078,0.461 1.078,1.095 v 3.677 l 5.754,0.444 c 2.66,-0.555 5.086,-1.412 6.641,-2.077 V 23.644 20.476 c 0.902,-0.128 1.771,-0.192 2.662,-0.304 25.4,-3.993 46.385,-20.932 54.959,-43.388 m -14.502,-21.805 c 0.127,1.551 0.236,3.074 0.285,4.641 1.379,-0.87 2.854,-1.663 4.041,-2.44 2.821,-1.869 5.563,-3.677 7.75,-5.371 -3.058,1.125 -7.226,2.251 -12.076,3.17 m -0.316,-3.124 c 10.412,-1.362 16.687,-3.137 16.687,-5.038 0,-2.156 -7.117,-4.025 -18.797,-5.436 0.922,3.408 1.633,7.019 2.11,10.474 m -10.159,-11.298 0.983,3.583 0.08,6.29 c 0.365,0.616 0.918,1.41 1.711,2.267 1.553,-0.192 3.09,-0.32 4.533,-0.477 -0.445,-3.599 -1.078,-7.431 -1.918,-11.155 -1.697,-0.16 -3.488,-0.321 -5.389,-0.508 m -10.285,12.377 c -0.08,0.252 -0.08,0.538 -0.125,0.73 1.344,-0.081 2.533,-0.161 3.77,-0.192 0.158,-0.442 0.363,-0.87 0.603,-1.156 2.453,-3.375 2.106,-8.782 -1.443,-12.345 -1.615,-0.097 -3.25,-0.208 -4.914,-0.256 1.984,3.455 3.012,7.799 2.109,13.219 m -23.281,-10.08 c 4.17,4.36 4.93,8.036 4.77,11.568 0.794,-0.028 1.695,-0.028 2.505,-0.077 1.299,-3.203 2.489,-6.497 -0.681,-8.923 -1.631,-1.253 -3.215,-3.615 -4.453,-6.325 -1.616,-0.109 -3.295,-0.109 -4.993,-0.14 0.747,1.33 1.584,2.598 2.852,3.897 m -47.144,10.285 c 1.599,0.159 3.214,0.205 4.849,0.333 0.047,-4.754 0.711,-9.332 1.901,-13.549 -1.979,0.143 -3.883,0.205 -5.75,0.364 -0.602,4.138 -1,8.431 -1,12.852 m -10.129,-1.063 c 2.394,0.318 4.978,0.621 7.832,0.842 0,-4.297 0.394,-8.493 1.187,-12.474 -2.822,0.3 -5.515,0.589 -8.017,0.841 -0.557,3.487 -0.84,7.115 -1.002,10.791 m -8.811,-9.396 c -6.225,1.235 -10.012,2.583 -10.012,4.137 0,1.346 3.262,2.598 8.905,3.74 0.158,-2.646 0.554,-5.31 1.107,-7.877 m 1.791,8.43 c 1.16,0.224 2.506,0.413 3.854,0.57 0.109,-3.391 0.601,-6.846 1.234,-10.078 -1.363,0.205 -2.74,0.428 -4.025,0.649 -0.504,2.854 -0.87,5.865 -1.063,8.859 m 31.965,-0.745 c 2.711,-5.531 0.08,-7.511 -3.375,-8.923 -0.998,-0.409 -1.9,-0.838 -2.693,-1.471 -0.762,4.308 -1.268,8.89 -1.268,13.66 2.217,0.108 4.643,0.253 7.066,0.381 -0.316,-1.078 -0.316,-2.203 0.27,-3.647 m 39.082,8.289 c -0.842,0.032 -1.668,0.096 -2.457,0.096 -0.682,4.594 -1.031,9.176 5.07,14.847 1.524,-0.522 3.059,-1.125 4.658,-1.679 0.27,-0.096 0.477,-0.14 0.713,-0.252 -1.154,-1.412 -6.67,-8.526 -7.984,-13.012 m 19.537,-1.299 c -1.029,0.14 -2.027,0.221 -3.135,0.366 0.553,4.641 2.694,7.668 1.344,10.377 1.029,-0.396 2.107,-0.806 3.186,-1.202 -0.317,-1.239 -1.471,-5.596 -1.395,-9.541 m 7.07,7.272 c 0.95,-3.929 0.315,-6.574 -0.396,-7.953 -0.842,0.125 -1.711,0.236 -2.617,0.317 -0.807,1.535 -1.03,4.185 0.08,8.73 l -0.477,0.285 c 1.143,-0.458 2.301,-0.918 3.41,-1.379 m 8.147,-3.612 c -0.08,-1.824 -0.129,-3.66 -0.32,-5.563 -1.268,0.223 -2.631,0.444 -3.977,0.616 -0.158,2.775 -1.236,6.422 -1.633,7.64 2.11,-0.901 4.106,-1.823 5.93,-2.693 m -114.944,-33.121 c -3.455,7.988 -5.433,16.655 -5.433,25.77 0,24.88 14.182,46.493 35.225,58.174 1.111,-8.382 9.019,-17.941 29.859,-28.367 -0.793,-0.81 -3.043,-3.36 -3.805,-5.451 -0.918,-2.631 -3.455,-2.631 -5.721,-4.057 -2.343,-1.444 -6.464,-5.548 -5.798,-9.762 0.476,-2.568 -0.192,-4.376 -1.032,-5.928 -3.265,-0.157 -6.4,-0.38 -9.414,-0.697 0.397,8.145 1.985,15.69 4.485,22.107 -3.928,-6.086 -6.514,-13.801 -7.067,-22.328 -1.713,-0.112 -3.295,-0.317 -4.929,-0.492 0.412,11.76 3.105,22.52 7.322,31.297 -5.639,-8.413 -9.256,-19.521 -9.697,-31.614 -2.743,-0.332 -5.438,-0.714 -7.832,-1.123 0.289,12.407 3.423,23.942 8.543,33.355 -7.1,-9.174 -11.522,-20.964 -11.709,-33.976 -1.348,-0.252 -2.694,-0.585 -3.932,-0.855 v 0.447 c 0,13.262 3.803,25.512 10.285,35.415 -8.258,-9.57 -13.264,-21.883 -13.264,-35.415 0,-0.447 0.034,-0.811 0.034,-1.208 -6.912,-1.883 -10.842,-4.104 -10.842,-6.593 0,-2.678 4.803,-5.119 12.916,-7.099 2.172,-7.669 6.037,-14.675 11.156,-20.522 -3.82,5.847 -6.672,12.585 -8.461,19.888 1.346,-0.285 2.774,-0.552 4.215,-0.841 1.982,-7.16 5.275,-13.705 9.602,-19.221 -3.09,5.624 -5.356,11.934 -6.827,18.748 2.534,-0.413 5.356,-0.857 8.301,-1.158 1.711,-6.306 4.248,-12.074 7.512,-16.941 -2.424,4.99 -4.293,10.635 -5.639,16.752 1.453,-0.16 2.85,-0.317 4.356,-0.476 -0.317,-1.633 -0.192,-3.677 0.443,-6.403 1.982,-8.304 4.012,-9.175 0.272,-12.947 -2.696,-2.582 -0.875,-6.245 0.441,-8.081 -8.699,2.361 -18.746,6.053 -25.531,11.537 -3.424,2.757 -6.037,5.499 -8.034,8.065 m 50.444,117.271 c -0.238,0.824 -1.08,1.458 -2.268,1.458 -0.474,0 -0.902,-0.159 -1.343,-0.38 -0.274,0.65 -1.079,1.157 -2.03,1.157 -1.269,0 -2.301,-0.777 -2.301,-1.758 0,-0.256 0.034,-0.477 0.161,-0.634 -5.246,0 -10.125,0.537 -13.549,2.041 -5.879,2.665 -1.822,2.441 -0.397,3.851 1.426,1.46 -6.513,1.648 -6.513,4.534 0,1.727 1.314,2.838 2.312,3.455 l 16.166,1.664 c 3.217,-0.762 8.811,-2.249 10.443,-3.139 2.141,-1.186 24.34,-2.822 29.823,-4.04 5.515,-1.188 12.474,-3.884 12.474,-15.056 0,-8.89 -11.252,-10.854 -15.689,-11.236 v 3.299 c 0.189,0.253 0.348,0.554 0.348,0.87 0,0.189 -0.032,0.38 -0.112,0.492 1.19,0.142 2.061,0.742 2.061,1.521 0,0.156 0,0.284 -0.129,0.428 0.289,-0.08 0.605,-0.176 1.047,-0.176 0.953,0 1.744,0.476 1.744,1.094 0,0.505 -0.399,0.887 -0.998,1.015 0.24,0.159 0.443,0.316 0.443,0.649 0,0.445 -0.443,0.761 -1.029,0.761 -0.602,0 -1.078,-0.316 -1.078,-0.761 0,-0.22 0.16,-0.474 0.316,-0.602 -0.666,-0.159 -1.187,-0.525 -1.187,-1.062 0,-0.032 0.029,-0.128 0.029,-0.16 -0.346,0.24 -0.951,0.353 -1.455,0.353 v 1.535 c 1.267,1.503 1.426,2.789 0.822,3.916 0.873,0.205 1.475,0.742 1.475,1.423 0,0.857 -1.03,1.539 -2.346,1.539 -0.869,0 -1.506,-0.269 -1.947,-0.682 -0.557,0.253 -1.192,0.49 -1.776,0.713 0.504,0.254 0.825,0.475 0.825,0.743 0,0.272 -0.192,0.477 -0.588,0.685 0.267,0.172 0.476,0.441 0.476,0.711 0,0.603 -0.793,1.078 -1.744,1.078 -1.047,0 -1.76,-0.475 -1.76,-1.078 0,-0.033 0,-0.062 0.049,-0.111 -0.316,0 -0.635,0.049 -0.842,0.049 -1.423,0 -2.66,-0.208 -3.406,-0.493 -0.361,0.016 -0.681,0.08 -0.967,0.129 0.049,0.048 0.161,0.172 0.161,0.269 0,0.601 -1.11,1.078 -2.331,1.078 -1.236,0 -2.234,-0.429 -2.343,-0.921 -0.241,0 -0.446,0.047 -0.713,0.063 0.267,0.257 0.472,0.589 0.472,0.95 0,0.922 -0.919,1.666 -2.076,1.666 -1.031,0 -1.851,-0.744 -1.851,-1.666 0,-0.317 0.107,-0.6 0.314,-0.917 h -1.709 c -0.082,0.665 -0.683,1.206 -1.51,1.206 0.27,0.252 0.479,0.553 0.479,0.965 0,0.698 -0.635,1.283 -1.475,1.283 -0.761,0 -1.472,-0.585 -1.472,-1.283 0,-0.713 0.633,-1.254 1.363,-1.254 -0.332,-0.252 -0.525,-0.6 -0.525,-1.013 v -0.062 c -0.838,-0.049 -1.551,-0.111 -2.344,-0.159 M -344.52,19.871 c 0,0.573 0,1.078 0.127,1.588 l 24.547,1.787 c -0.918,-2.328 -1.521,-4.911 -1.678,-7.856 -8.607,-4.551 -16.199,-10.651 -22.234,-17.942 -0.43,5.135 -1.031,15.817 -0.762,22.423 m -8.017,-12.422 c -0.113,3.976 -0.113,8.478 0.078,13.436 l 4.215,0.269 c -0.047,-3.026 -0.156,-12.566 0.476,-21.786 0.157,-2.109 0.397,-4.218 0.633,-6.246 -1.265,-1.822 -2.504,-3.614 -3.535,-5.483 -0.6,3.248 -1.584,9.968 -1.867,19.81 m 22.09,-106.004 c 0.16,-0.015 0.316,-0.015 0.507,-0.015 0.475,-0.113 0.92,-0.161 1.393,-0.161 0.906,-0.14 1.904,-0.219 2.822,-0.219 4.358,-2.363 9.018,-4.311 13.854,-5.881 1.201,-0.35 2.392,-0.698 3.531,-1.03 1.84,0.556 3.932,1.664 6.039,3.723 1.998,1.996 3.77,4.819 5.244,9.019 4.85,14.676 4.008,12.948 10.018,16.687 3.801,2.361 3.691,6.26 4.721,10.714 1.71,0.029 3.328,0.062 5.007,0.062 -0.681,-2.202 -1.047,-4.342 -1.047,-6.151 0,-5.479 -5.783,-5.766 -9.158,-7.748 -3.535,-2.107 -2.345,-5.198 -3.535,-9.239 -1.156,-4.057 -4.611,-9.509 -6.006,-12.09 -0.238,-0.556 -0.713,-1.126 -1.154,-1.743 -1.272,-1.663 -3.014,-3.535 -4.045,-4.63 2.537,-0.425 5.119,-0.804 7.672,-1.013 1.348,1.302 3.295,3.186 5.119,5.182 2.822,2.902 5.641,6.037 6.547,7.973 1.994,4.261 1.994,7.179 10.646,11.22 14.057,5.767 7.178,14.373 11.475,18.431 0.205,0.188 0.441,0.364 0.602,0.568 0.982,0.064 1.98,0.113 2.849,0.221 -1.422,-2.329 -0.869,-4.593 -1.818,-6.955 -1.317,-3.25 -2.141,-8.702 -5.008,-10.461 -2.934,-1.757 -4.727,-5.625 -7.832,-6.86 -3.135,-1.142 -5.387,-3.235 -6.826,-7.275 -0.666,-2.077 -4.014,-4.501 -6.547,-6.814 -2.219,-2.044 -3.738,-4.056 -1.822,-5.562 0.664,0 1.265,0 1.855,0.031 28.604,0.842 53.942,17.336 62.199,43.518 0.51,1.441 0.825,2.916 1.19,4.423 -8.102,-23.898 -31.221,-39.335 -58.494,-42.06 0.873,1.217 1.855,2.408 2.693,3.486 2.856,4.089 9.256,8.574 12.742,12.25 3.553,3.708 5.451,8.161 7.592,11.059 2.029,2.823 0.871,7.941 4.928,11.618 1.742,0.191 3.375,0.316 5.041,0.507 -0.793,-2.584 -1.791,-4.405 -4.217,-8.954 3.549,3.392 5.689,5.785 7.164,9.304 1.615,0.252 3.246,0.473 4.754,0.681 -1.775,-7.115 -4.201,-13.756 -7.022,-18.289 3.963,4.549 7.258,11.283 9.526,18.734 12.203,1.947 20.299,4.706 21.836,7.825 v -0.109 c -4.324,-33.311 -34.102,-59.144 -70.33,-59.144 -16.955,0 -32.52,5.692 -44.705,15.167 m 195.111,-110.647 c -4.137,-1.19 -7.748,-2.706 -10.856,-4.434 l 5.012,4.434 z m -6.986,2.267 10.285,11.503 0.031,-11.503 z m 23.072,0.965 c -2.789,-0.334 -5.483,-0.711 -8.065,-1.235 l -0.16,13.66 z m 46.498,98.778 v -0.065 0.065 20.554 c -1.475,-4.469 -2.981,-8.857 -4.613,-13.17 v -7.128 -0.065 0.065 l -2.743,0.156 c 0.999,2.329 1.84,4.642 2.743,6.972 V 40.68 l -24.104,32.772 -3.455,4.706 -3.771,-5.881 -10.807,-16.589 11.172,0.92 c 0,-1.287 0.08,-2.585 0.08,-3.868 v -0.541 l -14.295,-1.25 -6.594,-10.141 v -2.662 l 20.68,1.774 c -1.219,-41.394 -8.414,-80.617 -19.887,-114.752 l 0.871,-112.895 c -0.633,-0.827 -3.82,-4.39 -4.642,-5.343 l -0.762,105.515 c -2.346,-5.976 -4.803,-11.808 -7.385,-17.433 l -40.347,93.958 c 11.187,13.169 19.304,29.113 23.029,46.702 l 23.754,2.045 v 3.091 l 6.353,9.76 -72.754,-6.117 c -0.873,-8.194 -2.742,-16.021 -5.355,-23.233 -1.078,-2.85 -2.236,-5.515 -3.504,-8.113 l 3.504,-8.397 5.832,-13.898 c 2.693,3.134 5.119,6.542 7.352,10.125 0.792,1.17 1.535,2.361 2.296,3.612 5.2,8.826 9.176,18.558 11.838,28.969 l 3.616,0.269 c -2.872,-12.026 -7.543,-23.262 -13.741,-33.246 l 5.912,-13.77 40.584,-95.149 c 0.078,0.11 0.159,0.253 0.237,0.35 l -0.159,-0.365 -0.078,0.015 c -3.455,-7.387 -7.226,-14.325 -11.158,-20.919 l -0.285,0.618 -43.012,102.499 -5.986,13.962 c 0,0.016 0.047,0.016 0.047,0.016 l -3.295,7.892 -5.611,13.361 c 0,0 -5.721,0.933 -10.76,-2.741 -3.662,-2.583 -5.832,-5.943 -6.799,-7.609 -2.092,2.585 -4.518,4.962 -7.068,7.131 9.855,8.528 17.115,21.806 19.621,37.274 0.283,1.475 0.472,2.978 0.679,4.485 0.205,2.582 0.317,5.151 0.317,7.75 0,5.198 -0.524,10.125 -1.426,14.897 l 11.363,1.188 c -0.047,-0.302 -0.209,-0.602 -0.316,-0.983 -1.158,-3.234 -2.664,-9.619 0,-15.705 0.822,-2.059 2.217,-4.103 4.277,-5.96 l 45.955,3.852 30.936,2.63 15.371,23.694 1.695,2.533 4.614,0.54 2.818,-3.82 27.166,-37.445 V -86.638 c 0.441,1.299 0.949,2.63 1.314,3.993 l 17.637,-13.453 17.068,-4.357 c -0.837,-2.918 -1.744,-5.788 -2.662,-8.622 z m 31.17,79.222 19.937,-3.551 c -0.906,-6.971 -2.14,-13.833 -3.375,-20.568 l -37.084,3.423 c 1.903,8.335 3.614,16.925 5.008,25.623 z m -363.174,-109.84 -21.125,-0.428 14.611,10.571 6.545,6.813 z m -34.549,133.326 9.893,1.678 0.426,-3.089 z m 397.248,284.555 35.545,-18.558 v -20.729 l -35.545,17.654 z m -13.424,-0.428 v 149.859 l 30.143,-19.539 V 274.079 l -16.719,8.795 z m -219.294,71.883 31.058,-15.501 V 234.588 l -31.058,-7.448 z m -42.139,-106.797 v 3.298 h -0.076 v 49.903 l 0.076,-0.049 v 3.615 l 16.166,-7.719 V 236.9 Z m 0,117.255 25.863,-12.377 -9.697,-3.485 v -47.575 l -16.166,7.86 v 3.331 l -0.076,0.029 v 48.369 h 0.076 z m 22.33,43.922 10.711,-5.617 v -48.098 l -1.869,-0.633 -8.842,4.309 z m 13.297,-52.797 v 45.833 l 10.57,-5.484 v -39.983 l -4.058,2.028 z m 29.301,-8.999 -16.118,8.049 v 39.929 l 16.118,-8.401 z m 42.771,7.448 v 0 c 1.395,0.349 2.553,-0.429 2.553,-1.824 v -5.307 l -9.701,4.834 v 0.156 z m 20.141,-56.909 c 10.41,3.441 9.968,14.104 9.968,14.104 0,0 0.239,56.845 0.239,61.963 0,5.128 -2.823,7.338 -2.823,7.338 0,0 12.235,-6.957 20.731,-11.649 8.619,-4.658 7.937,-16.021 7.937,-16.021 v -55.132 c 0,-9.572 -12.136,-13.629 -12.136,-13.629 l -22.36,-6.53 -25.863,11.52 c 0,0 13.785,4.63 24.307,8.036 m -5.559,-19.015 c 5.559,-2.585 4.928,-7.925 4.928,-7.925 v -20.238 l -26.658,-6.322 v 43.676 c 6.402,-2.649 17.765,-7.419 21.73,-9.191 m -21.73,70.806 9.701,-4.85 V 320.4 c 0,-1.346 -1.158,-2.773 -2.553,-3.231 l -7.148,-2.107 z m 98.255,-4.915 33.803,-68.3 v -0.493 l -33.803,-8.049 z m 33.803,3.788 -31.726,60.395 31.726,-19.176 z m 71.09,-273.272 33.943,-9.159 -0.316,-18.747 -33.279,7.844 -0.584,20.142 z m -1.029,-39.062 -2.346,0.49 C -16.75,25.038 -17.115,16.72 -17.637,8.511 l -34.816,5.958 c 0.713,8.572 1.189,17.211 1.345,26.021 l 34.518,-7.021 c 0.08,0.842 0.08,1.646 0.08,2.472 l -32.408,7.383 17.937,1.412 14.471,3.996 1.744,0.489 1.899,-0.537 27.086,-6.753 -32.125,-6.259 1.982,-3.455 3.025,1.11 36.102,8.35 0.316,23.423 -36.654,9.778 -0.24,0.081 c -0.125,6.701 -0.442,13.373 -0.758,19.935 l 14.736,6.578 19.539,12.265 -2.55,24.039 -37.717,14.578 -0.158,-0.06 c -0.332,1.379 -0.524,2.662 -0.729,4.008 l 11.838,8.59 19.826,22.059 -8.906,22.632 -38.559,16.796 -5.908,-2.457 3.485,5.198 36.228,7.544 v 25.719 l -18.953,9.921 v 139.545 0.159 l -33.52,22.257 -28.824,-10.389 v -33.358 l -33.803,21.211 -27.511,-9.873 V 258.041 l -41.582,-9.921 v 24.5 l 22.47,6.421 c 13.661,4.057 14.262,11.774 14.262,16.211 v 55.989 c 0,12.455 -7.512,16.465 -7.512,16.465 l -17.716,10.348 c -14.293,8.478 -23.661,4.382 -23.661,4.382 l -44.359,-15.808 V 339.99 l -5.641,2.822 v 43.119 l -67.556,35.086 v -3.51 l 19.619,-10.247 v -50.142 l -19.619,9.51 v 50.879 h -0.076 v 3.51 l -27.559,-11.475 v -52.644 l 25.574,9.048 v -4.881 l -25.574,-8.97 v -54.214 l 25.574,7.877 v -4.851 l -25.574,-7.828 v -55.433 l 25.574,6.53 v -4.802 l -25.574,-6.594 v -53.484 l 27.559,5.815 v 51.124 h 0.076 v 3.616 l 16.166,-7.768 v -11.124 l -9.729,-2.313 v -23.741 l 268.42,60.491 33.832,-16.15 -33.832,-7.147 -24.974,12.077 -80.268,-17.939 c 2.266,-4.2 4.5,-8.557 6.641,-12.995 0.187,-0.6 0.476,-1.174 0.824,-1.727 l -2.805,-0.477 h -0.129 c -0.076,0.269 -1.234,2.79 -1.947,4.089 l -42.219,-99.839 -3.17,0.745 6.229,14.676 23.041,54.31 5.832,13.769 3.027,7.115 1.457,3.423 4.262,9.749 c -1.471,2.741 -2.785,5.148 -3.627,6.573 l -12.139,-2.517 -7.402,-17.701 -1.346,-3.391 -2.377,-5.676 -0.601,-1.458 -21.996,-53.293 -6.674,-16.15 -1.109,-2.726 -1.344,-3.248 -1.524,0.319 -1.9,0.46 1.9,4.61 c -11.552,8.337 -25.371,13.503 -40.187,14.866 -1.348,0.142 -2.586,0.221 -3.885,0.301 l -10.045,23.976 -14.388,34.071 -10.604,-2.36 8.381,-20.144 c -1.266,1.619 -2.899,2.521 -4.799,2.521 h -0.287 l -0.236,0.713 -6.75,16.084 -21.282,-4.706 v -8.539 l 8.778,-20.763 c -1.159,-1.696 -1.871,-3.708 -1.871,-5.894 0,-3.679 1.98,-6.957 4.929,-8.842 v -21.806 l -20.174,-2.982 c -0.285,-0.044 -0.601,-0.188 -0.918,-0.268 l -6.072,-3.123 -18.744,-3.074 v -6.482 l -5.012,-2.582 v 8.21 l -21.123,-3.392 V 95.115 l -4.959,-2.567 v 17.272 l -17.988,-2.914 V 83.389 l -5.055,-2.537 v 25.197 l -20.283,-3.343 V 70.441 l -3.584,-1.807 v 50.141 9.477 28.652 l -10.759,3.836 -13.71,-0.348 -5.513,-21.585 10.568,-9.761 17.942,-9.558 c -1.11,-7.383 -2.092,-14.911 -2.981,-22.55 l -12.342,1.555 -19.89,-3.756 -2.077,-20.888 18.748,-10.049 7.86,-1.396 -21.758,-11.075 c -1.346,-0.696 -1.951,-2.203 -1.555,-3.566 0.366,-1.364 1.76,-2.281 3.139,-2.121 l 24.629,2.565 c -0.127,-2.725 -0.158,-5.483 -0.209,-8.194 l 7.166,8.671 23.342,-29.302 -0.237,-145.005 c 1.711,-4.089 3.532,-8.081 5.516,-11.95 l -5.596,-0.14 0.08,12.09 c -1,2.125 -1.904,4.297 -2.773,6.449 -0.604,1.491 -1.207,2.87 -1.762,4.313 v 3.376 l 0.239,129.568 -18.985,24.292 -18.572,-22.504 -0.16,-26.669 13.533,-2.059 c 0.684,-7.196 1.426,-14.266 2.395,-21.205 l 2.378,-19.272 3.897,-15.449 c 0.871,-4.137 1.855,-8.13 2.963,-12.141 l -20.76,0.873 17.797,11.268 c -2.553,11.172 -4.613,22.724 -6.275,34.721 l -16.008,-10.415 -0.047,-38.6 26.215,-1.348 c 0.678,-2.504 1.428,-4.929 2.103,-7.386 l -15.846,-16.479 -8.175,-16.72 8.621,-20.078 24.656,0.141 -0.047,-23.152 4.533,9.763 v 0.031 13.358 l 7.227,0.064 1.154,0.016 -0.681,-0.984 -7.7,-12.454 v -20.299 c -1.507,0.472 -2.931,0.915 -4.533,1.279 v 9.226 l -3.849,-8.369 c -4.694,0.87 -9.844,1.364 -15.215,1.364 -6.783,0 -13.104,-0.73 -18.7,-2.158 l 0.237,94.185 -2.979,0.141 -1.424,0.444 -0.32,-95.973 c -9.648,-3.186 -15.926,-8.272 -15.926,-13.961 0,-9.617 17.481,-17.384 39.112,-17.384 16.213,0 30.142,4.376 36.068,10.59 l 25.104,0.947 -5.295,-13.546 -0.27,-23.112 10.76,-9.981 36.133,3.11 -0.157,-0.826 1.631,-27.91 14.262,-7.051 34.945,3.647 4.803,-13.981 16.479,-2.758 40.472,4.013 0.526,-1.255 0.236,-0.645 0.586,-1.299 14.582,0.152 25.102,3.488 16.908,4.992 2.472,11.349 34.737,3.705 17.133,12.856 c 23.136,2.058 40.537,11.061 40.537,21.761 0,2.596 -0.983,5.118 -2.854,7.415 l 12.315,14.339 -6.086,25.799 -7.067,11.471 36.225,1.383 10.555,18.241 -9.842,23.517 -12.948,16.038 c 0.875,2.71 1.745,5.464 2.586,8.162 l 35.133,-1.192 5.481,22.379 -13.897,16.051 -14.847,11.492 c 1.234,6.655 2.296,13.452 3.328,20.299 l 11.646,-2.109 23.899,2.22 4.136,20.884 L 2.951,1.189 -13.928,7.781 c 0.477,8.398 0.903,16.877 1.029,25.546 z" /></g><g
           transform="translate(396.9795,373.627)"
           id="g36"><path
             id="path38"
             style="fill:#621c3f;fill-opacity:1;fill-rule:nonzero;stroke:none"
             d="M 0,0 4.93,0.381 7.973,5.119 3.059,4.689 Z" /></g><g
           transform="translate(82.1709,282.582)"
           id="g40"><path
             id="path42"
             style="fill:#621c3f;fill-opacity:1;fill-rule:nonzero;stroke:none"
             d="M 0,0 0.08,33.679 -1.475,33.9 -4.213,34.598 -4.293,-3.467 -3.42,-2.28 Z" /></g><g
           transform="translate(93.9932,363.0713)"
           id="g44"><path
             id="path46"
             style="fill:#621c3f;fill-opacity:1;fill-rule:nonzero;stroke:none"
             d="m 0,0 -3.645,-4.516 h 3.569 c 0,1.539 0,3.042 0.076,4.516" /></g><g
           transform="translate(67.7061,265.9922)"
           id="g48"><path
             id="path50"
             style="fill:#621c3f;fill-opacity:1;fill-rule:nonzero;stroke:none"
             d="m 0,0 5.055,-20.078 4.961,-1.348 0.156,34.549 z" /></g><g
           transform="translate(90.3487,358.5557)"
           id="g52"><path
             id="path54"
             style="fill:#621c3f;fill-opacity:1;fill-rule:nonzero;stroke:none"
             d="m 0,0 h -1.266 l -25.58,-16.066 0.43,-21.824 14.025,-3.486 0.032,26.543 z" /></g><g
           transform="translate(391.5752,235.5039)"
           id="g56"><path
             id="path58"
             style="fill:#621c3f;fill-opacity:1;fill-rule:nonzero;stroke:none"
             d="M 0,0 C 1.508,4.165 3.108,8.413 4.533,12.723 L 3.74,125.7 -0.949,125.271 Z" /></g><g
           transform="translate(174.8936,730.5332)"
           id="g60"><path
             id="path62"
             style="fill:#621c3f;fill-opacity:1;fill-rule:nonzero;stroke:none"
             d="M 0,0 -21.123,-8.731 V -59.704 L 0,-52.305 Z" /></g><g
           transform="translate(174.8936,496.461)"
           id="g64"><path
             id="path66"
             style="fill:#621c3f;fill-opacity:1;fill-rule:nonzero;stroke:none"
             d="M 0,0 -21.123,-4.47 V -57.906 L 0,-54.483 Z" /></g><g
           transform="translate(174.8936,554.6035)"
           id="g68"><path
             id="path70"
             style="fill:#621c3f;fill-opacity:1;fill-rule:nonzero;stroke:none"
             d="M 0,0 -21.123,-5.435 V -57.749 L 0,-53.34 Z" /></g><g
           transform="translate(174.8936,673.3945)"
           id="g72"><path
             id="path74"
             style="fill:#621c3f;fill-opacity:1;fill-rule:nonzero;stroke:none"
             d="M 0,0 -21.123,-7.416 V -60.392 L 0,-53.91 Z" /></g><g
           transform="translate(174.8936,614.6182)"
           id="g76"><path
             id="path78"
             style="fill:#621c3f;fill-opacity:1;fill-rule:nonzero;stroke:none"
             d="M 0,0 -21.123,-6.465 V -60.583 L 0,-55.212 Z" /></g><g
           transform="translate(148.8116,547.917)"
           id="g80"><path
             id="path82"
             style="fill:#621c3f;fill-opacity:1;fill-rule:nonzero;stroke:none"
             d="M 0,0 -17.988,-4.644 V -55.926 L 0,-52.093 Z" /></g><g
           transform="translate(148.8116,606.6299)"
           id="g84"><path
             id="path86"
             style="fill:#621c3f;fill-opacity:1;fill-rule:nonzero;stroke:none"
             d="M 0,0 -17.988,-5.544 V -58.491 L 0,-53.865 Z" /></g><g
           transform="translate(148.8116,490.9619)"
           id="g88"><path
             id="path90"
             style="fill:#621c3f;fill-opacity:1;fill-rule:nonzero;stroke:none"
             d="M 0,0 -17.988,-3.772 V -56.179 L 0,-53.216 Z" /></g><g
           transform="translate(148.8116,664.1865)"
           id="g92"><path
             id="path94"
             style="fill:#621c3f;fill-opacity:1;fill-rule:nonzero;stroke:none"
             d="M 0,0 -17.988,-6.369 V -58.254 L 0,-52.738 Z" /></g><g
           transform="translate(148.8116,719.7578)"
           id="g96"><path
             id="path98"
             style="fill:#621c3f;fill-opacity:1;fill-rule:nonzero;stroke:none"
             d="M 0,0 -17.988,-7.512 V -57.059 L 0,-50.736 Z" /></g><g
           transform="translate(125.7686,542.0215)"
           id="g100"><path
             id="path102"
             style="fill:#621c3f;fill-opacity:1;fill-rule:nonzero;stroke:none"
             d="M 0,0 -20.283,-5.231 V -55.324 L 0,-51.044 Z" /></g><g
           transform="translate(125.7686,656.1377)"
           id="g104"><path
             id="path106"
             style="fill:#621c3f;fill-opacity:1;fill-rule:nonzero;stroke:none"
             d="M 0,0 -20.283,-7.179 V -57.97 L 0,-51.709 Z" /></g><g
           transform="translate(125.7686,486.1123)"
           id="g108"><path
             id="path110"
             style="fill:#621c3f;fill-opacity:1;fill-rule:nonzero;stroke:none"
             d="M 0,0 -20.283,-4.262 V -55.465 L 0,-52.155 Z" /></g><g
           transform="translate(125.7686,710.1855)"
           id="g112"><path
             id="path114"
             style="fill:#621c3f;fill-opacity:1;fill-rule:nonzero;stroke:none"
             d="M 0,0 -20.283,-8.424 V -56.409 L 0,-49.182 Z" /></g><g
           transform="translate(125.7686,599.5625)"
           id="g116"><path
             id="path118"
             style="fill:#621c3f;fill-opacity:1;fill-rule:nonzero;stroke:none"
             d="M 0,0 -20.283,-6.213 V -57.906 L 0,-52.724 Z" /></g><g
           transform="translate(207.4639,503.3233)"
           id="g120"><path
             id="path122"
             style="fill:#621c3f;fill-opacity:1;fill-rule:nonzero;stroke:none"
             d="M 0,0 -27.559,-5.831 V -60.507 L 0,-56.006 Z" /></g><g
           transform="translate(237.5225,402.5029)"
           id="g124"><path
             id="path126"
             style="fill:#621c3f;fill-opacity:1;fill-rule:nonzero;stroke:none"
             d="m 0,0 -2.297,4.008 v 2.109 c 0,0.569 -0.473,1.011 -1.078,1.011 -0.236,0 -0.396,-0.061 -0.633,-0.221 l -4.246,7.447 v 20.635 l 3.897,0.586 V 14.848 c 0,-0.554 0.427,-1.062 0.982,-1.062 0.605,0 1.078,0.508 1.078,1.062 v 21.029 l 12.395,1.855 V 22.897 Z M -11.709,34.482 V 20.171 l -7.703,13.183 z M -24.5,35.796 0.396,-7.006 22.33,42.803 Z" /></g><g
           transform="translate(207.4639,392.6914)"
           id="g128"><path
             id="path130"
             style="fill:#621c3f;fill-opacity:1;fill-rule:nonzero;stroke:none"
             d="M 0,0 V 3.771 L 9.459,0.966 Z m -32.57,13.295 5.011,-1.442 V -2.916 l -5.011,-0.539 z m -26.082,-2.043 4.959,2.567 V -5.673 l -4.959,-0.556 z M -81.695,-0.49 -76.641,2.044 V -8.114 L -81.695,-8.7 Z m -36.844,-15.28 144.4,15.312 -72.836,21.266 z" /></g><g
           transform="translate(270.2959,443.1494)"
           id="g132"><path
             id="path134"
             style="fill:#621c3f;fill-opacity:1;fill-rule:nonzero;stroke:none"
             d="m 0,0 1.191,-2.759 c 0,0 6.067,0.273 12.106,-0.221 l 7.908,-1.79 c 0.111,-0.618 1.029,-5.88 5.199,-8.984 l -6.99,-3.519 C 12.029,-10.855 3.059,-6.959 -6.672,-6.799 l 0.319,0.682 4.089,1.807 c 0,0 -0.841,2.647 -1.347,4.213 l 2.564,0.413 z M 46.258,-7.243 -0.918,3.487 -5.926,2.806 -26.766,-44.515 Z" /></g><g
           transform="translate(174.8936,417.2861)"
           id="g136"><path
             id="path138"
             style="fill:#621c3f;fill-opacity:1;fill-rule:nonzero;stroke:none"
             d="M 0,0 5.012,2.551 V -2.093 L 0,-0.649 Z m 51.35,-15.656 -18.78,5.514 V 16.562 Z M 33.965,20.427 32.457,20.206 -9.363,-1.218 58.143,-20.932 Z" /></g><g
           transform="translate(360.7549,422.5947)"
           id="g140"><path
             id="path142"
             style="fill:#621c3f;fill-opacity:1;fill-rule:nonzero;stroke:none"
             d="M 0,0 40.838,-9.316 4.576,-13.185 C 3.375,-8.636 1.836,-4.262 0,0 m -23.631,5.342 4.09,-0.921 c 3.533,-5.829 6.4,-12.267 8.381,-19.236 l -3.086,-0.319 c -2.19,7.465 -5.406,14.359 -9.385,20.476 m -39.791,-9.716 15.211,7.765 c 2.379,-4.149 4.535,-8.635 6.326,-13.372 0.949,-2.554 1.744,-5.153 2.408,-7.895 l -16.197,-1.663 c -1.98,5.564 -4.566,10.664 -7.748,15.165 m 24.988,16.386 -81.214,-41.551 179.851,19.096 z" /></g><g
           transform="translate(205.0381,381.7715)"
           id="g144"><path
             id="path146"
             style="fill:#621c3f;fill-opacity:1;fill-rule:nonzero;stroke:none"
             d="m 0,0 c -1.029,0 -1.871,-0.665 -1.871,-1.41 0,-0.791 0.842,-1.425 1.871,-1.425 0.998,0 1.82,0.634 1.82,1.425 C 1.82,-0.665 0.998,0 0,0" /></g><g
           transform="translate(308.7725,280.3975)"
           id="g148"><path
             id="path150"
             style="fill:#621c3f;fill-opacity:1;fill-rule:nonzero;stroke:none"
             d="M 0,0 C 0.918,0.603 1.031,1.728 0.477,2.33 0,3.026 -1.109,3.075 -1.898,2.41 -2.693,1.809 -2.978,0.697 -2.424,0.017 -1.898,-0.633 -0.789,-0.665 0,0" /></g><g
           transform="translate(307.9834,275.6113)"
           id="g152"><path
             id="path154"
             style="fill:#621c3f;fill-opacity:1;fill-rule:nonzero;stroke:none"
             d="M 0,0 C 0.108,-0.221 0.27,-0.333 0.553,-0.541 0.27,-1.219 0.473,-2.06 0.998,-2.693 1.789,-3.835 3.326,-4.04 4.246,-3.25 5.355,-2.44 5.483,-0.966 4.641,0.145 4.197,0.537 3.799,0.822 3.326,0.95 3.326,1.459 3.215,1.885 2.898,2.314 2.264,3.122 1.059,3.296 0.27,2.678 -0.557,2.013 -0.685,0.822 0,0" /></g><g
           transform="translate(210.4893,340.2051)"
           id="g156"><path
             id="path158"
             style="fill:#621c3f;fill-opacity:1;fill-rule:nonzero;stroke:none"
             d="m 0,0 c -1.395,-0.634 -1.871,-2.426 -1.238,-4.025 0.746,-1.569 2.457,-2.426 3.771,-1.792 1.348,0.636 1.873,2.425 1.112,4.041 C 2.963,-0.19 1.299,0.603 0,0" /></g><g
           transform="translate(215.2432,334.2315)"
           id="g160"><path
             id="path162"
             style="fill:#621c3f;fill-opacity:1;fill-rule:nonzero;stroke:none"
             d="m 0,0 c -0.744,-0.557 -0.793,-1.823 -0.08,-2.727 0.762,-0.901 1.949,-1.206 2.742,-0.568 0.762,0.568 0.793,1.82 0.049,2.738 C 1.996,0.38 0.84,0.634 0,0" /></g><g
           transform="translate(216.4307,327.7666)"
           id="g164"><path
             id="path166"
             style="fill:#621c3f;fill-opacity:1;fill-rule:nonzero;stroke:none"
             d="M 0,0 C -0.902,-0.683 -0.666,-2.395 0.445,-3.773 1.555,-5.247 3.107,-5.85 4.023,-5.184 4.898,-4.502 4.693,-2.79 3.582,-1.316 2.473,0.093 0.84,0.665 0,0" /></g><g
           transform="translate(240.4249,315.0547)"
           id="g168"><path
             id="path170"
             style="fill:#621c3f;fill-opacity:1;fill-rule:nonzero;stroke:none"
             d="M 0,0 C 0.633,0.429 0.633,1.427 0.049,2.189 -0.553,2.918 -1.475,3.091 -2.107,2.694 -2.693,2.189 -2.693,1.252 -2.141,0.492 -1.475,-0.221 -0.602,-0.444 0,0" /></g><g
           transform="translate(249.4717,314.6904)"
           id="g172"><path
             id="path174"
             style="fill:#621c3f;fill-opacity:1;fill-rule:nonzero;stroke:none"
             d="M 0,0 C 0.525,0.477 0.525,1.299 0.082,1.952 -0.473,2.585 -1.299,2.741 -1.852,2.313 -2.328,1.933 -2.328,1.03 -1.9,0.381 -1.424,-0.222 -0.586,-0.332 0,0" /></g><g
           transform="translate(272.5479,303.25)"
           id="g176"><path
             id="path178"
             style="fill:#621c3f;fill-opacity:1;fill-rule:nonzero;stroke:none"
             d="M 0,0 C 0.441,0.333 0.393,1.127 -0.08,1.728 -0.588,2.377 -1.35,2.582 -1.822,2.314 -2.252,1.948 -2.141,1.139 -1.666,0.49 -1.19,-0.159 -0.428,-0.364 0,0" /></g><g
           transform="translate(289.5987,297.418)"
           id="g180"><path
             id="path182"
             style="fill:#621c3f;fill-opacity:1;fill-rule:nonzero;stroke:none"
             d="M 0,0 C 0.348,0.221 0.397,0.713 0.078,1.078 -0.207,1.458 -0.684,1.507 -0.967,1.283 -1.285,1.014 -1.393,0.489 -1.078,0.156 -0.809,-0.177 -0.332,-0.316 0,0" /></g><g
           transform="translate(282.6729,294.8369)"
           id="g184"><path
             id="path186"
             style="fill:#621c3f;fill-opacity:1;fill-rule:nonzero;stroke:none"
             d="M 0,0 C 1.125,1.138 0.762,3.182 -0.664,4.529 -2.092,5.924 -4.199,6.084 -5.23,5.006 -6.26,3.815 -6.023,1.818 -4.565,0.457 -3.09,-0.891 -1.029,-1.127 0,0" /></g><g
           transform="translate(235.8917,371.8672)"
           id="g188"><path
             id="path190"
             style="fill:#621c3f;fill-opacity:1;fill-rule:nonzero;stroke:none"
             d="M 0,0 C 0.633,0 1.205,0.412 1.205,0.89 1.205,1.427 0.633,1.824 0,1.824 -0.633,1.824 -1.219,1.427 -1.219,0.89 -1.219,0.412 -0.633,0 0,0" /></g><g
           transform="translate(210.9952,371.0293)"
           id="g192"><path
             id="path194"
             style="fill:#621c3f;fill-opacity:1;fill-rule:nonzero;stroke:none"
             d="m 0,0 c -0.473,0 -0.869,-0.365 -0.869,-0.698 0,-0.413 0.396,-0.713 0.869,-0.713 0.477,0 0.92,0.3 0.92,0.713 C 0.92,-0.365 0.477,0 0,0" /></g><g
           transform="translate(246.9385,372.501)"
           id="g196"><path
             id="path198"
             style="fill:#621c3f;fill-opacity:1;fill-rule:nonzero;stroke:none"
             d="m 0,0 c 0.553,0 1.078,0.364 1.078,0.856 0,0.478 -0.525,0.81 -1.078,0.81 -0.557,0 -1.031,-0.332 -1.031,-0.81 C -1.031,0.364 -0.557,0 0,0" /></g><g
           transform="translate(260.6475,360.5996)"
           id="g200"><path
             id="path202"
             style="fill:#621c3f;fill-opacity:1;fill-rule:nonzero;stroke:none"
             d="M 0,0 C 0.789,0 1.424,0.461 1.424,1.094 1.424,1.65 0.789,2.172 0,2.172 -0.795,2.172 -1.475,1.65 -1.475,1.094 -1.475,0.461 -0.795,0 0,0" /></g><g
           transform="translate(255.3995,363.1524)"
           id="g204"><path
             id="path206"
             style="fill:#621c3f;fill-opacity:1;fill-rule:nonzero;stroke:none"
             d="m 0,0 c -0.127,0.048 -0.203,0.08 -0.283,0.08 -0.635,0 -1.112,-0.413 -1.112,-0.982 0,-0.54 0.477,-0.889 1.112,-0.889 0.472,0 0.918,0.332 0.996,0.729 0.398,0.095 0.683,0.316 0.683,0.681 0,0.333 -0.334,0.649 -0.761,0.649 C 0.35,0.268 0.156,0.173 0,0" /></g><g
           transform="translate(254.3702,367.0371)"
           id="g208"><path
             id="path210"
             style="fill:#621c3f;fill-opacity:1;fill-rule:nonzero;stroke:none"
             d="M 0,0 C 0.633,0 1.219,0.393 1.219,0.868 1.219,1.407 0.633,1.787 0,1.787 -0.713,1.787 -1.207,1.407 -1.207,0.868 -1.207,0.393 -0.713,0 0,0" /></g><g
           transform="translate(241.6104,370.3799)"
           id="g212"><path
             id="path214"
             style="fill:#621c3f;fill-opacity:1;fill-rule:nonzero;stroke:none"
             d="m 0,0 c 0.129,-0.382 0.479,-0.634 1,-0.634 0.557,0 1.029,0.333 1.029,0.837 0,0.238 -0.156,0.541 -0.472,0.683 v 0.143 c 0,0.586 -0.602,1.063 -1.315,1.063 -0.746,0 -1.379,-0.477 -1.379,-1.063 C -1.137,0.506 -0.631,0.108 0,0" /></g><g
           transform="translate(227.7627,374.1201)"
           id="g216"><path
             id="path218"
             style="fill:#621c3f;fill-opacity:1;fill-rule:nonzero;stroke:none"
             d="M 0,0 C 0.553,0 1.061,0.429 1.061,0.982 1.061,1.458 0.553,1.884 0,1.884 -0.604,1.884 -1.187,1.458 -1.187,0.982 -1.187,0.429 -0.604,0 0,0" /></g><g
           transform="translate(166.0831,251.9014)"
           id="g220"><path
             id="path222"
             style="fill:#621c3f;fill-opacity:1;fill-rule:nonzero;stroke:none"
             d="M 0,0 C 0.555,0 0.951,0.714 0.951,1.635 0.951,2.585 0.555,3.299 0,3.299 -0.523,3.299 -0.996,2.585 -0.996,1.635 -0.996,0.714 -0.523,0 0,0" /></g><g
           transform="translate(173.1846,237.0547)"
           id="g224"><path
             id="path226"
             style="fill:#621c3f;fill-opacity:1;fill-rule:nonzero;stroke:none"
             d="M 0,0 C 0.809,0 1.395,0.714 1.395,1.631 1.395,2.537 0.809,3.248 0,3.248 -0.715,3.248 -1.299,2.537 -1.299,1.631 -1.299,0.714 -0.715,0 0,0" /></g><g
           transform="translate(176.9717,237.0547)"
           id="g228"><path
             id="path230"
             style="fill:#621c3f;fill-opacity:1;fill-rule:nonzero;stroke:none"
             d="M 0,0 C 0.396,0 0.744,0.553 0.744,1.186 0.744,1.904 0.396,2.441 0,2.441 -0.445,2.441 -0.809,1.904 -0.809,1.186 -0.809,0.553 -0.445,0 0,0" /></g><g
           transform="translate(234.1475,358.3018)"
           id="g232"><path
             id="path234"
             style="fill:#621c3f;fill-opacity:1;fill-rule:nonzero;stroke:none"
             d="m 0,0 c -0.555,0 -0.982,-0.473 -0.982,-1.094 v -1.82 c 0,-0.606 0.427,-1.046 0.982,-1.046 0.605,0 1.078,0.44 1.078,1.046 v 1.82 C 1.078,-0.473 0.605,0 0,0" /></g><g
           transform="translate(234.1475,353.2158)"
           id="g236"><path
             id="path238"
             style="fill:#621c3f;fill-opacity:1;fill-rule:nonzero;stroke:none"
             d="m 0,0 c -0.555,0 -0.982,-0.444 -0.982,-1.03 v -0.903 c 0,-0.588 0.427,-1.061 0.982,-1.061 0.605,0 1.078,0.473 1.078,1.061 V -1.03 C 1.078,-0.444 0.605,0 0,0" /></g><g
           transform="translate(234.1475,348.9981)"
           id="g240"><path
             id="path242"
             style="fill:#621c3f;fill-opacity:1;fill-rule:nonzero;stroke:none"
             d="m 0,0 c -0.555,0 -0.982,-0.522 -0.982,-1.107 v -0.934 c 0,-0.572 0.427,-1.017 0.982,-1.017 0.605,0 1.078,0.445 1.078,1.017 v 0.934 C 1.078,-0.522 0.605,0 0,0" /></g><g
           transform="translate(234.1475,458.5381)"
           id="g244"><path
             id="path246"
             style="fill:#621c3f;fill-opacity:1;fill-rule:nonzero;stroke:none"
             d="m 0,0 c 0.605,0 1.078,0.477 1.078,1.029 v 6.45 C 1.078,8.033 0.605,8.541 0,8.541 -0.555,8.541 -0.982,8.033 -0.982,7.479 V 1.029 C -0.982,0.477 -0.555,0 0,0" /></g></g></g></g></svg>